<?xml version="1.0" standalone="no"?><!DOCTYPE svg PUBLIC "-//W3C//DTD SVG 1.1//EN" "http://www.w3.org/Graphics/SVG/1.1/DTD/svg11.dtd"><svg t="1557641563415" class="icon" style="" viewBox="0 0 1429 1024" version="1.1" xmlns="http://www.w3.org/2000/svg" p-id="10362" xmlns:xlink="http://www.w3.org/1999/xlink" width="279.1015625" height="200"><defs><style type="text/css"></style></defs><path d="M893.44965 200.71944c-47.147011 0-85.609047 37.221325-85.609047 83.541195 0 19.713516 7.168551 37.497038 18.748519 51.696285l-93.329025 99.808293c-12.820679-7.719978-27.984922-12.407108-44.252019-12.407109-22.746365 0-43.424879 8.822833-59.002693 23.297793l-89.606893-72.926225c6.617124-11.717824 10.339257-25.08993 10.339257-39.013463 0-46.044157-38.462036-83.541195-85.609047-83.541196s-85.609047 37.221325-85.609047 83.541196c0 17.645665 5.652127 33.912763 15.164244 47.147011l-81.335488 83.816909c-13.509962-9.098546-30.328487-14.199246-47.836295-14.199246-47.147011 0-85.609047 37.221325-85.609047 83.541196 0 46.044157 38.186322 83.541195 85.609047 83.541195 47.147011 0 85.609047-37.221325 85.609047-83.541195 0-18.748519-6.617124-35.980614-17.094238-49.628433l80.921917-83.403339c14.199246 10.2014 31.431341 16.267097 50.317717 16.267097 22.332795 0 42.459882-8.547119 57.761982-22.332794l90.15832 73.201938c-6.065697 11.579968-9.649973 24.124933-9.649974 37.910609 0 46.044157 38.462036 83.541195 85.609047 83.541195s85.609047-37.221325 85.609047-83.541195c0-20.127087-7.719978-38.462036-19.851373-52.799139l92.777598-99.394722c12.820679 8.133549 28.674206 13.096392 45.630587 13.096392 47.147011 0 85.609047-37.221325 85.609047-83.541196 0.137857-46.182014-38.324179-83.679052-85.47119-83.679052z m0 0" p-id="10363" fill="#37a65f"></path><path d="M1041.507808 0.551427H117.591815c-56.659128 0-102.565428 55.142703-102.565428 111.526117v595.816909c0 56.659128 46.044157 102.703285 102.703285 102.703285h303.284868v146.403878H173.148088c-18.059235 0-32.809908 14.612816-32.809908 32.809908 0 18.059235 14.750673 32.809908 32.809908 32.809908h812.941303c18.059235 0 32.809908-14.612816 32.809909-32.809908 0-18.059235-14.612816-32.809908-32.809909-32.809908H738.22294V810.735595h303.284868c56.659128 0 102.703285-46.044157 102.703285-102.703285V112.215401c0.137857-56.521271-45.9063-111.663974-102.703285-111.663974zM672.74098 956.863759H486.634356V810.597738h186.106624v146.266021z m405.850296-248.831449c0 20.264943-16.542811 37.083468-37.083468 37.083468H117.591815c-20.264943 0-37.083468-16.542811-37.083468-37.083468V112.353258c0-20.264943 16.542811-37.083468 37.083468-37.083468h924.05385c20.264943 0 37.083468 16.542811 37.083468 37.083468v595.679052z m0 0" p-id="10364" fill="#37a65f"></path></svg>