<?xml version="1.0" standalone="no"?><!DOCTYPE svg PUBLIC "-//W3C//DTD SVG 1.1//EN" "http://www.w3.org/Graphics/SVG/1.1/DTD/svg11.dtd"><svg t="1557641673442" class="icon" style="" viewBox="0 0 1024 1024" version="1.1" xmlns="http://www.w3.org/2000/svg" p-id="14186" xmlns:xlink="http://www.w3.org/1999/xlink" width="200" height="200"><defs><style type="text/css"></style></defs><path d="M511.87712 12.288c-121.167872 0-235.149312 47.263744-320.851968 132.999168C105.32352 230.989824 58.092544 344.937472 58.092544 466.138112c0 121.234432 47.230976 235.18208 132.932608 320.884736 85.702656 85.738496 199.684096 132.967424 320.851968 132.967424 121.300992 0 235.246592-47.228928 320.951296-132.967424 85.768192-85.701632 132.965376-199.650304 132.965376-320.884736 0-121.20064-47.197184-235.147264-132.965376-320.850944C747.124736 59.551744 633.178112 12.288 511.87712 12.288M792.716288 746.911744c-74.939392 75.004928-174.747648 116.320256-280.839168 116.320256-106.025984 0-205.70112-41.315328-280.774656-116.320256C156.095488 671.904768 114.783232 572.230656 114.783232 466.138112c0-106.09152 41.31328-205.766656 116.320256-280.772608C306.176 110.357504 405.851136 69.044224 511.87712 69.044224c106.090496 0 205.899776 41.314304 280.839168 116.32128C867.724288 260.371456 909.038592 360.045568 909.038592 466.138112 909.038592 572.230656 867.724288 671.904768 792.716288 746.911744M721.654784 525.167616l-181.36576-77.714432L540.289024 154.144768c0-15.643648-12.700672-28.411904-28.41088-28.411904-15.643648 0-28.312576 12.768256-28.312576 28.411904l0 311.99232c0 11.332608 6.75328 21.659648 17.214464 26.07104l198.547456 85.102592c3.643392 1.537024 7.419904 2.306048 11.129856 2.306048 10.99776 0 21.56032-6.483968 26.10688-17.179648C742.71232 547.996672 736.06144 531.38432 721.654784 525.167616M228.261888 437.792768l-28.345344 0c-15.642624 0-28.378112 12.701696-28.378112 28.34432 0 15.643648 12.735488 28.345344 28.378112 28.345344l28.345344 0c15.642624 0 28.411904-12.701696 28.411904-28.345344C256.673792 450.494464 243.904512 437.792768 228.261888 437.792768M767.1808 466.138112c0 15.643648 12.768256 28.378112 28.41088 28.378112l28.345344 0c15.67744 0 28.345344-12.735488 28.345344-28.378112 0-15.642624-12.667904-28.378112-28.345344-28.378112l-28.345344 0C779.948032 437.76 767.1808 450.494464 767.1808 466.138112M511.87712 721.441792c-15.643648 0-28.312576 12.699648-28.312576 28.345344l0 28.409856c0 15.578112 12.668928 28.312576 28.312576 28.312576 15.710208 0 28.41088-12.735488 28.41088-28.312576l0-28.409856C540.288 734.142464 527.587328 721.441792 511.87712 721.441792" p-id="14187" fill="#37a65f"></path></svg>