<?xml version="1.0" standalone="no"?><!DOCTYPE svg PUBLIC "-//W3C//DTD SVG 1.1//EN" "http://www.w3.org/Graphics/SVG/1.1/DTD/svg11.dtd"><svg t="1557641320986" class="icon" style="" viewBox="0 0 1024 1024" version="1.1" xmlns="http://www.w3.org/2000/svg" p-id="9385" xmlns:xlink="http://www.w3.org/1999/xlink" width="200" height="200"><defs><style type="text/css"></style></defs><path d="M512 809.984q123.989333 0 210.986667-86.997333t86.997333-210.986667-86.997333-210.986667-210.986667-86.997333-210.986667 86.997333-86.997333 210.986667 86.997333 210.986667 210.986667 86.997333zM893.994667 470.016l88.021333 0 0 84.010667-88.021333 0q-13.994667 134.016-109.994667 230.016t-230.016 109.994667l0 88.021333-84.010667 0 0-88.021333q-134.016-13.994667-230.016-109.994667t-109.994667-230.016l-88.021333 0 0-84.010667 88.021333 0q13.994667-134.016 109.994667-230.016t230.016-109.994667l0-88.021333 84.010667 0 0 88.021333q134.016 13.994667 230.016 109.994667t109.994667 230.016zM512 342.016q70.016 0 120.021333 50.005333t50.005333 120.021333-50.005333 120.021333-120.021333 50.005333-120.021333-50.005333-50.005333-120.021333 50.005333-120.021333 120.021333-50.005333z" p-id="9386" fill="#37a65f"></path></svg>